<svg xmlns="http://www.w3.org/2000/svg" width="1920" height="1080" viewBox="0 0 1920 1080" fill="none">
  <defs>
    <linearGradient id="bg" x1="0" y1="0" x2="1920" y2="1080" gradientUnits="userSpaceOnUse">
      <stop offset="0" stop-color="#07121f"/>
      <stop offset="0.55" stop-color="#06162a"/>
      <stop offset="1" stop-color="#05060a"/>
    </linearGradient>

    <radialGradient id="orbCyan" cx="0" cy="0" r="1" gradientUnits="userSpaceOnUse" gradientTransform="translate(520 240) rotate(35) scale(560 420)">
      <stop stop-color="#22d3ee" stop-opacity="0.55"/>
      <stop offset="1" stop-color="#22d3ee" stop-opacity="0"/>
    </radialGradient>
    <radialGradient id="orbBlue" cx="0" cy="0" r="1" gradientUnits="userSpaceOnUse" gradientTransform="translate(1480 740) rotate(-12) scale(720 520)">
      <stop stop-color="#2563eb" stop-opacity="0.55"/>
      <stop offset="1" stop-color="#2563eb" stop-opacity="0"/>
    </radialGradient>
    <radialGradient id="orbGreen" cx="0" cy="0" r="1" gradientUnits="userSpaceOnUse" gradientTransform="translate(1220 260) rotate(12) scale(520 360)">
      <stop stop-color="#22c55e" stop-opacity="0.25"/>
      <stop offset="1" stop-color="#22c55e" stop-opacity="0"/>
    </radialGradient>
    <radialGradient id="orbYellow" cx="0" cy="0" r="1" gradientUnits="userSpaceOnUse" gradientTransform="translate(820 860) rotate(0) scale(520 340)">
      <stop stop-color="#fde047" stop-opacity="0.18"/>
      <stop offset="1" stop-color="#fde047" stop-opacity="0"/>
    </radialGradient>

    <linearGradient id="screenStroke" x1="0" y1="0" x2="1" y2="1">
      <stop offset="0" stop-color="#ffffff" stop-opacity="0.18"/>
      <stop offset="1" stop-color="#ffffff" stop-opacity="0.06"/>
    </linearGradient>

    <filter id="softShadow" x="-40%" y="-40%" width="180%" height="180%" color-interpolation-filters="sRGB">
      <feGaussianBlur in="SourceAlpha" stdDeviation="18" result="blur"/>
      <feColorMatrix in="blur" type="matrix" values="0 0 0 0 0  0 0 0 0 0  0 0 0 0 0  0 0 0 0.45 0" result="shadow"/>
      <feMerge>
        <feMergeNode in="shadow"/>
        <feMergeNode in="SourceGraphic"/>
      </feMerge>
    </filter>

    <linearGradient id="screenGlow" x1="0" y1="0" x2="0" y2="1">
      <stop offset="0" stop-color="#22d3ee" stop-opacity="0.16"/>
      <stop offset="0.55" stop-color="#22c55e" stop-opacity="0.10"/>
      <stop offset="1" stop-color="#fde047" stop-opacity="0.06"/>
    </linearGradient>

    <linearGradient id="screenFill" x1="0" y1="0" x2="1" y2="1">
      <stop offset="0" stop-color="#0b1220" stop-opacity="0.72"/>
      <stop offset="1" stop-color="#0a0f1a" stop-opacity="0.52"/>
    </linearGradient>
  </defs>

  <rect width="1920" height="1080" fill="url(#bg)"/>
  <rect width="1920" height="1080" fill="url(#orbCyan)"/>
  <rect width="1920" height="1080" fill="url(#orbBlue)"/>
  <rect width="1920" height="1080" fill="url(#orbGreen)"/>
  <rect width="1920" height="1080" fill="url(#orbYellow)"/>

  <!-- "SOC wall" screens -->
  <g filter="url(#softShadow)" opacity="0.95">
    <!-- Large center screen -->
    <rect x="420" y="210" width="1080" height="660" rx="28" fill="url(#screenFill)"/>
    <rect x="420" y="210" width="1080" height="660" rx="28" stroke="url(#screenStroke)" stroke-width="2"/>
    <rect x="448" y="248" width="1024" height="16" rx="8" fill="white" fill-opacity="0.07"/>
    <rect x="448" y="284" width="600" height="290" rx="18" fill="url(#screenGlow)"/>
    <rect x="1068" y="284" width="404" height="290" rx="18" fill="white" fill-opacity="0.05"/>
    <rect x="448" y="592" width="720" height="250" rx="18" fill="white" fill-opacity="0.05"/>
    <rect x="1190" y="592" width="282" height="250" rx="18" fill="white" fill-opacity="0.04"/>
  </g>

  <g filter="url(#softShadow)" opacity="0.80">
    <!-- Left smaller screen -->
    <rect x="120" y="330" width="300" height="420" rx="22" fill="url(#screenFill)"/>
    <rect x="120" y="330" width="300" height="420" rx="22" stroke="url(#screenStroke)" stroke-width="2"/>
    <rect x="144" y="366" width="252" height="12" rx="6" fill="white" fill-opacity="0.06"/>
    <rect x="144" y="396" width="252" height="120" rx="14" fill="url(#screenGlow)"/>
    <rect x="144" y="536" width="252" height="188" rx="14" fill="white" fill-opacity="0.05"/>
  </g>

  <g filter="url(#softShadow)" opacity="0.78">
    <!-- Right smaller screen -->
    <rect x="1500" y="350" width="300" height="380" rx="22" fill="url(#screenFill)"/>
    <rect x="1500" y="350" width="300" height="380" rx="22" stroke="url(#screenStroke)" stroke-width="2"/>
    <rect x="1524" y="386" width="252" height="12" rx="6" fill="white" fill-opacity="0.06"/>
    <rect x="1524" y="416" width="252" height="140" rx="14" fill="white" fill-opacity="0.05"/>
    <rect x="1524" y="576" width="252" height="126" rx="14" fill="url(#screenGlow)"/>
  </g>

  <!-- subtle scanlines / noise hint -->
  <g opacity="0.06">
    <rect x="0" y="0" width="1920" height="1080" fill="white"/>
    <g>
      <rect x="0" y="0" width="1920" height="2" fill="#000"/>
      <rect x="0" y="6" width="1920" height="2" fill="#000"/>
      <rect x="0" y="12" width="1920" height="2" fill="#000"/>
      <rect x="0" y="18" width="1920" height="2" fill="#000"/>
    </g>
  </g>
</svg>

